<svg id="Layer_1" data-name="Layer 1" xmlns="http://www.w3.org/2000/svg" viewBox="0 0 1024 1024"><defs><style>.cls-1{fill:#ff8c41;}.cls-2{fill:#2db096;}.cls-3{fill:#ffb941;}.cls-4{fill:#3255ea;}</style></defs><title>Artboard 1</title><path class="cls-1" d="M1.7,253.65a4.15,4.15,0,0,0-1.7.24v49c4.12-9.45,8.73-18.91,13.82-28.13C18.67,266,12.85,252.68,1.7,253.65Z"/><path class="cls-1" d="M90.21,373c-16-3.39-32-6.06-48.26-8.24a342.82,342.82,0,0,1,17.7-35.41c5.58-9.7-1.7-20.61-12.12-21.09-15.76-.73-31.77-1-47.53-.49v28.13c8.49-.24,16.73-.24,24.73-.24A329.49,329.49,0,0,0,9.21,372.47c-3.39,9.45,5.34,16.73,13.58,17.7,14.55,1.7,28.86,4.12,43.17,6.55-3.16,6.3-6.31,12.85-9.7,19.15-8,16.25,16.24,30.31,24.25,14.31,6.06-12.13,12.12-24.49,18.18-36.62C102.57,386.05,99.66,374.89,90.21,373Z"/><path id="_Path_" data-name="&lt;Path&gt;" class="cls-2" d="M190.45,135.8c3.88,7.27,16.49,9.94,22.07,2.91A637.43,637.43,0,0,1,259.8,86.82q12-11.64,24.73-22.56c8.73-7.51,18.19-13.09,22.07-24.24,6.06-17-21.1-24.5-27.16-7.52-.24,1-8.24,6.3-9.94,7.52-3.88,3.15-7.76,6.54-11.4,9.94q-12,10.55-23.28,21.82c-10.66,10.67-20.85,21.58-30.55,33a273.35,273.35,0,0,0-19.64-26.92c-4.85-5.82-14.79-4.85-19.88,0-5.82,5.82-4.85,14.07,0,19.89A214.37,214.37,0,0,1,190.45,135.8Z"/><path id="_Path_2" data-name="&lt;Path&gt;" class="cls-3" d="M330.36,313.3c1,10.67,0,21.34-12.85,22.55-9.7,1-20.37-5.33-23.76-14.55-6.31-16.73-33.46-9.46-27.16,7.52s20.13,30.31,38.31,33.95c18.68,3.88,39.77-2.67,48.74-20.61,9-18.19,3.4-40.26,0-58.93a631.5,631.5,0,0,0-17-70.32c-5.09-17.22-32.25-9.94-27.16,7.52C319,250.25,327.94,282,330.36,313.3Z"/><path id="_Path_3" data-name="&lt;Path&gt;" class="cls-4" d="M32.85,38.08a28.46,28.46,0,0,0-5.4.29C20,39.42,14.58,45.31,15.28,53a12.53,12.53,0,0,0,2.85,7.27,35.05,35.05,0,0,0,4.19,3.79c1.58,1.29,3.1,2.66,4.61,4,1.13,1,2.35,2.64,4,2.7,1.5,0,2.67-1.22,3.72-2.29,2.4-2.43,5.28-4.33,7.7-6.72a14,14,0,0,0,4.48-9.91,13.46,13.46,0,0,0-4.08-10.16A15.52,15.52,0,0,0,32.85,38.08Z"/><path id="_Path_4" data-name="&lt;Path&gt;" class="cls-4" d="M406,65.72c18.19,0,18.19-28.13,0-28.13C388.08,37.59,388.08,65.72,406,65.72Z"/><path id="_Path_5" data-name="&lt;Path&gt;" class="cls-3" d="M20.61,879.51c15.52,8.24,32.25,6.79,47.77-.49,15.28-7.27,27.89-21.34,44.62-25.22,14.79-3.39,20.13,8.49,25.95,19.65,6.06,11.88,13.09,24,25.46,30.06,14.06,6.79,28.85,3.88,42-3.63,11.64-6.55,24.73-21.34,39-21.34,13.33,0,25.22,14.79,22.31,27.64-4.13,17.7,22.79,25.22,27.15,7.52,8.49-35.4-26.43-72.26-62.56-61.11-16,4.85-27.16,17.22-42,24.49-13.58,6.79-19.4-3.63-25.46-14.55-7-13.33-14.31-26.91-28.61-33.46-19.4-8.73-40.74-.48-57.47,10.67C66,848.23,49,864,33,854.29c-12.61-7.52-20.37-21.83-31-31.52-.73-.49-1.21-1.22-1.94-1.7v40.74C5.82,868.84,12.37,875.14,20.61,879.51Z"/><path id="_Path_6" data-name="&lt;Path&gt;" class="cls-2" d="M431.48,637.26c-4.12-24.49-17.46-49-39.77-61.1-22.06-11.89-50.19-10.19-70.32,4.6-6.06,4.61-9,12.13-5.09,19.16,3.4,6.06,13.09,9.46,19.16,5.09,12.12-9,28.13-11.88,42-4.61,15.27,8,23,24.74,26.43,41a107.3,107.3,0,0,1,1.94,26.44c-.24,9.21-4.61,13.09-12.61,17.21-16,8.25-34.19,8-50.68,1.7-17-6.3-24.25,20.85-7.52,27.16,24.25,9,52.62,7,75.17-6.06,11.64-6.79,20.86-16.74,23-30.56C435.12,664.18,433.66,650.36,431.48,637.26Z"/><path id="_Path_7" data-name="&lt;Path&gt;" class="cls-1" d="M150.92,612.53a358,358,0,0,0-42.43-20.37c-11.88-4.85-29.83-15.28-42.19-7.76-5.82,3.64-8.25,9.46-10.92,15.28-3.39,7.51-6.54,15-9.7,22.79-6.06,15.28-11.39,30.8-16,46.32-5.09,17.46,22.07,24.73,27.16,7.51,3.88-12.85,8-25.7,12.85-38.31,2.18-6.06,4.61-11.88,7.28-17.7,1.21-3.15,2.66-6.06,4.12-9,2.67,1,5.33,2.18,7.76,3.15,5.57,2.18,11.39,4.36,16.73,6.79,10.67,4.85,21.1,9.94,31.52,15.76C152.62,645.75,166.69,621.5,150.92,612.53Z"/><path id="_Path_8" data-name="&lt;Path&gt;" class="cls-2" d="M795.94,680.67q-45.47,65.48-86.57,133.61c-9.45,15.52,15,29.58,24.25,14.31C761,783,789.88,738.62,820.19,695,830.62,680.18,806.37,665.88,795.94,680.67Z"/><path id="_Path_9" data-name="&lt;Path&gt;" class="cls-3" d="M928,835.13c-9.69,15.28,14.55,29.34,24.25,14.31,6.55-10.43,18.68-16,30.8-16,13.34,0,22.31,7.52,30.8,17L1024,862.05v-41C994.66,796.09,949.31,801.91,928,835.13Z"/><path id="_Path_10" data-name="&lt;Path&gt;" class="cls-3" d="M672.51,606c-21.82-14.31-54.8-9-68.62,13.82-8.49,13.83-7.76,33.47,3.15,45.59s30.56,15.52,43.89,5.58c6.07-4.61,9.22-12.13,5.1-19.16-3.4-6.06-13.1-9.7-19.16-5.09-7,5.33-12.13-2.18-10.19-9.46,1.94-6.54,9.22-10.18,15.77-10.91,19.4-2.42,30.79,19.16,31.76,35.89.49,8.73-1,18.43-6.3,25.7-6.31,9-17,10.67-27.4,10.43-10-.24-21.1-1.94-29.1-8.49-8.73-6.79-14.31-17-19.89-26.43-9.21-15.52-33.46-1.45-24.24,14.31,7.27,12.36,15,25,26.43,34,12.36,9.7,26.91,13.33,42.43,14.79,30.55,2.67,57.71-13.34,64.5-44.13C706.46,654,697,621.74,672.51,606Z"/><path id="_Path_11" data-name="&lt;Path&gt;" class="cls-4" d="M936.83,583.19c-18.19,0-18.19,28.13,0,28.13C954.77,611.32,955,583.19,936.83,583.19Z"/><path id="_Path_12" data-name="&lt;Path&gt;" class="cls-4" d="M631.05,967.77c-18.19,0-18.19,28.13,0,28.13S649.24,967.77,631.05,967.77Z"/><path id="_Path_13" data-name="&lt;Path&gt;" class="cls-2" d="M979.26,948.62c-5.58-17.22-32.73-9.7-27.16,7.51,5.09,15.52-8.73,26.68-23.28,26.68-14.55.24-27.64-8.73-29.58-23.52-1-7.52-10.67-11.64-17.22-9.95-8,2.19-10.91,9.7-9.94,17.22,2.67,19.4,17.7,34,35.65,40.25,13.07,5.05,26.59,4.74,40.49,0C971.74,998.33,987.75,974.56,979.26,948.62Z"/><path id="_Path_14" data-name="&lt;Path&gt;" class="cls-2" d="M720,201c14.79-23.52,29.34-47,44.13-70.57a27.06,27.06,0,0,1,2.19-3.15,5,5,0,0,1,1.94,1c5.33,2.43,10.67,5.09,15.76,8a198.72,198.72,0,0,1,31,21.83c7.27,6.3,16.73,5.09,22.06-2.91,17.71-25.95,35.41-51.65,53.35-77.6,10.19-15-14.06-29.1-24.25-14.31-14.79,21.34-29.34,42.93-44.13,64.26a221.69,221.69,0,0,0-26.67-17.46c-12.61-7-30.32-18.42-43.89-9-6.07,4.13-9.7,11.88-13.58,17.95-4.37,7.27-9,14.3-13.34,21.58-9.7,15.28-19.16,30.55-28.86,46.07S710.34,216.3,720,201Z"/><path id="_Path_15" data-name="&lt;Path&gt;" class="cls-1" d="M976,286.78h25.73a375,375,0,0,0-14.32,35.68c-2.91,8.25,4.85,18.44,13.59,17.71,7.76-.48,15.28-1,23-1.21V310.8h-2.18q1.08-2.55,2.18-5.1v-49c-16.74,1.45-33.49,2.66-50.23,4.12C959.94,262.75,959.94,286.78,976,286.78Z"/><path id="_Path_16" data-name="&lt;Path&gt;" class="cls-4" d="M661.85,405.2c13.57-1.7,26.18-7,37.34-14.55,10.67-7.27,20.37-14.55,33.22-17,11.4-2.18,26.92-1.94,35.64,6.79,5.82,5.82,8,19.4-3.63,18.43-18.19-1.21-17.95,26.91,0,28.13,29.1,2.18,44.13-30.56,32.25-54.56-12.85-26.19-45.83-31.53-71.78-26.19-13.58,2.91-25.22,9.45-36.37,17.21-10.67,7.52-22.55,14.8-36.13,14.07-9.94-.49-20.61-6.31-23.28-16.49s5.58-17.94,14.79-19.64c17.7-3.4,10.19-30.31-7.52-27.16-24.73,4.61-42,31.28-34.19,55.53C610.68,395,636.63,408.35,661.85,405.2Z"/><path id="_Path_17" data-name="&lt;Path&gt;" class="cls-4" d="M931.25,410.78c18.19,0,18.19-28.13,0-28.13S913.06,410.78,931.25,410.78Z"/><path id="_Path_18" data-name="&lt;Path&gt;" class="cls-1" d="M466.16,222.61c7,0,14.79-6.55,14.06-14.07-2.91-27.15,25.46-41.22,49.47-39,21.82,1.94,42.92,20.86,38.31,44.38-3.39,17.7,23.77,25.22,27.16,7.52,7.76-40.74-22.55-75.17-62.56-79.54-38.8-4.36-85.11,23.28-80.51,66.93C452.82,216.06,457.91,222.61,466.16,222.61Z"/><path id="_Path_19" data-name="&lt;Path&gt;" class="cls-4" d="M437.06,475.77Q453.43,486,469.8,496.13c5.09,3.16,10.42,6.55,15.51,9.7,2.67,1.7,5.1,3.16,7.76,4.85,1,.73,2.19,1.22,3.16,1.94.24.25.48.49.72.49a11.79,11.79,0,0,0,2.91,3.88,3.74,3.74,0,0,0,1,.73c3.64,2.91,8.73,5.57,13.58,3.63.25,0,.49-.24,1-.24,7.52-2.91,11.4-9.21,9.94-17.22-1.45-7.51-7-10.67-13.09-14.54-6.79-4.13-13.58-8.49-20.13-12.61-7.27-4.61-14.55-9.22-21.82-13.58,18.67-13.1,36.86-26.43,55-40.26,6.07-4.6,9.22-12.12,5.1-19.15-3.4-6.07-13.34-9.7-19.16-5.1-24,18.43-48.5,35.89-73.47,52.87C428.33,457.34,427.6,470,437.06,475.77Z"/><path id="_Path_20" data-name="&lt;Path&gt;" class="cls-4" d="M582.07,795.12a101.84,101.84,0,0,0-42,22.31c-11.64,10.43-19.89,23.76-27.89,37.1-7.52,12.13-15.28,25.22-28.61,31.52a46.07,46.07,0,0,1-39.53-.24c-16.25-8-30.55,16.25-14.31,24.25,31.77,15.76,69.6,8,91.91-19.88,10.18-12.85,17.21-27.65,26.91-40.74A73.64,73.64,0,0,1,589.34,822C607,817.67,599.53,790.51,582.07,795.12Z"/><path id="_Path_21" data-name="&lt;Path&gt;" class="cls-4" d="M101.7,955.65c-18.19,0-18.19,28.13,0,28.13S119.89,955.65,101.7,955.65Z"/><path id="_Path_22" data-name="&lt;Path&gt;" class="cls-4" d="M264.89,501.23c1.22.24,2.43.24,3.64.48a14.61,14.61,0,0,0,7-1.94c1.22-.73,2.43-1.21,3.64-1.94a11.23,11.23,0,0,0,3.88-3.63,9.25,9.25,0,0,0,2.42-4.85,10.91,10.91,0,0,0,.25-5.58,10.69,10.69,0,0,0-1.7-5.34,15.35,15.35,0,0,0-8.49-6.54c-1.21-.25-2.42-.25-3.63-.49a14.68,14.68,0,0,0-7,1.94c-1.21.73-2.42,1.21-3.63,1.94a11.16,11.16,0,0,0-3.88,3.64,9.16,9.16,0,0,0-2.43,4.85,10.91,10.91,0,0,0-.24,5.58,10.65,10.65,0,0,0,1.7,5.33C258.59,497.83,261.5,500.5,264.89,501.23Z"/><path id="_Path_23" data-name="&lt;Path&gt;" class="cls-4" d="M632.5,101.12c2.67,7,9.46,12.13,17.22,9.94,6.79-1.94,12.61-10.18,9.94-17.21a236.16,236.16,0,0,0-28.37-53.59c-10.43-14.55-34.92-.49-24.25,14.31A210.12,210.12,0,0,1,632.5,101.12Z"/><path id="_Path_24" data-name="&lt;Path&gt;" class="cls-4" d="M180.27,504.38q-13.47-23.28-26.92-46.56c-9-15.76-33.46-1.45-24.25,14.31q13.46,23.28,26.92,46.56C165,534.21,189.48,520.14,180.27,504.38Z"/><path id="_Path_25" data-name="&lt;Path&gt;" class="cls-4" d="M852,250.5c-7.52-1.22-15,1.94-17.22,9.94-1.94,6.79,2.18,16,9.94,17.21a213.16,213.16,0,0,0,41.22,2.67c18-.73,18.19-28.85,0-28.13A176.24,176.24,0,0,1,852,250.5Z"/><path id="_Path_26" data-name="&lt;Path&gt;" class="cls-1" d="M861.17,487.41c17.7-4.13,10.18-31.29-7.52-27.16-21.09,5.09-37.1,24.25-37.83,45.83-.48,22.06,15.52,41.22,36.14,47.28,17.45,5.09,24.73-22.06,7.51-27.16C838.38,520.14,840.56,492.26,861.17,487.41Z"/><path id="_Path_27" data-name="&lt;Path&gt;" class="cls-4" d="M195.54,724.8c-18.18,0-18.18,28.13,0,28.13C213.49,752.93,213.73,724.8,195.54,724.8Z"/><path id="_Path_28" data-name="&lt;Path&gt;" class="cls-4" d="M508.58,285.21a13.54,13.54,0,0,0-6-1.09,15.34,15.34,0,0,0-14.1,15.58,14.81,14.81,0,0,0,11.31,13.75c3.76.92,8.72.4,11.74-2.19,3.26-2.8,5.36-6.31,7.71-9.86a4.4,4.4,0,0,0,.89-2.58c-.09-1.54-1.58-3.28-2.35-4.57a30,30,0,0,0-3.42-4.79A16.61,16.61,0,0,0,508.58,285.21Z"/><path id="_Path_29" data-name="&lt;Path&gt;" class="cls-4" d="M962.53,142.63h1.94c3.64-2.91,7.52-4.36,9.95-7a8.39,8.39,0,0,0,2.91-4.61,10.19,10.19,0,0,0,1.21-5.34c-.24-3.64-1.45-7.52-4.12-10a22.84,22.84,0,0,0-9.95-5.1h-1.94c-3.64,1-7.52,2.43-9.95,5.1a8.36,8.36,0,0,0-2.91,4.61,10.2,10.2,0,0,0-1.22,5.34c.25,3.64,1.46,7.52,4.13,9.95C955.49,138,958.89,139.72,962.53,142.63Z"/><path id="_Path_30" data-name="&lt;Path&gt;" class="cls-4" d="M112.13,183.81a15.46,15.46,0,0,0,1.45-10.91c-1.21-3.4-3.15-6.79-6.55-8.49-3.15-1.7-7.27-2.67-10.91-1.45-1.94.72-3.64,1.21-5.58,1.94a15.12,15.12,0,0,0-8.48,6.54,15.43,15.43,0,0,0-1.46,10.92c1.22,3.39,3.16,6.79,6.55,8.48,3.15,1.7,7.27,2.67,10.91,1.46,1.94-.73,3.64-1.21,5.58-1.94A15.37,15.37,0,0,0,112.13,183.81Z"/><path id="_Path_31" data-name="&lt;Path&gt;" class="cls-4" d="M844.68,824.46c-11.88-.48-24-.48-35.89,0-9.94.49-14.79,8.73-13.58,17.7a172.18,172.18,0,0,1,1,35.41c-1.21,18.18,26.92,17.94,28.13,0a177.35,177.35,0,0,0-.24-25.46c6.79,0,13.58,0,20.61.24C862.62,853.32,862.62,825.19,844.68,824.46Z"/><path id="_Path_32" data-name="&lt;Path&gt;" class="cls-4" d="M662.57,473.58c-18.18,0-18.18,28.13,0,28.13C680.52,501.71,680.76,473.58,662.57,473.58Z"/><path id="_Path_33" data-name="&lt;Path&gt;" class="cls-4" d="M927.13,728.68c-18.19,0-18.19,28.13,0,28.13C945.07,756.81,945.07,728.68,927.13,728.68Z"/><path id="_Path_34" data-name="&lt;Path&gt;" class="cls-4" d="M443.12,771.84c18.19,0,18.19-28.13,0-28.13S424.93,771.84,443.12,771.84Z"/><path id="_Path_35" data-name="&lt;Path&gt;" class="cls-4" d="M364.31,938.67c-18.18,0-18.18,28.13,0,28.13S382.5,938.67,364.31,938.67Z"/></svg>